<svg width="118" height="26" viewBox="0 0 118 26" fill="none" xmlns="http://www.w3.org/2000/svg">
<path d="M31.0547 7.5V9.54688H32.6328V10.6641H31.0547V15.9062C31.0547 16.2448 31.125 16.5 31.2656 16.6719C31.4062 16.8385 31.6458 16.9219 31.9844 16.9219C32.151 16.9219 32.3802 16.8906 32.6719 16.8281V18C32.2917 18.1042 31.9219 18.1562 31.5625 18.1562C30.9167 18.1562 30.4297 17.9609 30.1016 17.5703C29.7734 17.1797 29.6094 16.625 29.6094 15.9062V10.6641H28.0703V9.54688H29.6094V7.5H31.0547ZM35.8984 18H34.4531V9.54688H35.8984V18ZM34.3359 7.30469C34.3359 7.07031 34.4062 6.8724 34.5469 6.71094C34.6927 6.54948 34.9062 6.46875 35.1875 6.46875C35.4688 6.46875 35.6823 6.54948 35.8281 6.71094C35.974 6.8724 36.0469 7.07031 36.0469 7.30469C36.0469 7.53906 35.974 7.73438 35.8281 7.89062C35.6823 8.04688 35.4688 8.125 35.1875 8.125C34.9062 8.125 34.6927 8.04688 34.5469 7.89062C34.4062 7.73438 34.3359 7.53906 34.3359 7.30469ZM45.375 13.8672C45.375 15.1589 45.0781 16.1979 44.4844 16.9844C43.8906 17.7656 43.0938 18.1562 42.0938 18.1562C41.026 18.1562 40.2005 17.7786 39.6172 17.0234L39.5469 18H38.2188V6H39.6641V10.4766C40.2474 9.7526 41.0521 9.39062 42.0781 9.39062C43.1042 9.39062 43.9089 9.77865 44.4922 10.5547C45.0807 11.3307 45.375 12.3932 45.375 13.7422V13.8672ZM43.9297 13.7031C43.9297 12.7188 43.7396 11.9583 43.3594 11.4219C42.9792 10.8854 42.4323 10.6172 41.7188 10.6172C40.7656 10.6172 40.0807 11.0599 39.6641 11.9453V15.6016C40.1068 16.487 40.7969 16.9297 41.7344 16.9297C42.4271 16.9297 42.9661 16.6615 43.3516 16.125C43.737 15.5885 43.9297 14.7812 43.9297 13.7031ZM52.4219 17.1641C51.8594 17.8255 51.0339 18.1562 49.9453 18.1562C49.0443 18.1562 48.3568 17.8958 47.8828 17.375C47.4141 16.849 47.1771 16.0729 47.1719 15.0469V9.54688H48.6172V15.0078C48.6172 16.2891 49.138 16.9297 50.1797 16.9297C51.2839 16.9297 52.0182 16.5182 52.3828 15.6953V9.54688H53.8281V18H52.4531L52.4219 17.1641ZM60.1172 10.8438C59.8984 10.8073 59.6615 10.7891 59.4062 10.7891C58.4583 10.7891 57.8151 11.1927 57.4766 12V18H56.0312V9.54688H57.4375L57.4609 10.5234C57.9349 9.76823 58.6068 9.39062 59.4766 9.39062C59.7578 9.39062 59.9714 9.42708 60.1172 9.5V10.8438ZM64.6875 16.9766C65.2031 16.9766 65.6536 16.8203 66.0391 16.5078C66.4245 16.1953 66.638 15.8047 66.6797 15.3359H68.0469C68.0208 15.8203 67.8542 16.2812 67.5469 16.7188C67.2396 17.1562 66.8281 17.5052 66.3125 17.7656C65.8021 18.026 65.2604 18.1562 64.6875 18.1562C63.5365 18.1562 62.6198 17.7734 61.9375 17.0078C61.2604 16.237 60.9219 15.1849 60.9219 13.8516V13.6094C60.9219 12.7865 61.0729 12.0547 61.375 11.4141C61.6771 10.7734 62.1094 10.276 62.6719 9.92188C63.2396 9.56771 63.9089 9.39062 64.6797 9.39062C65.6276 9.39062 66.4141 9.67448 67.0391 10.2422C67.6693 10.8099 68.0052 11.5469 68.0469 12.4531H66.6797C66.638 11.9062 66.4297 11.4583 66.0547 11.1094C65.6849 10.7552 65.2266 10.5781 64.6797 10.5781C63.9453 10.5781 63.375 10.8438 62.9688 11.375C62.5677 11.901 62.3672 12.6641 62.3672 13.6641V13.9375C62.3672 14.9115 62.5677 15.6615 62.9688 16.1875C63.3698 16.7135 63.9427 16.9766 64.6875 16.9766ZM71.2422 18H69.7969V9.54688H71.2422V18ZM69.6797 7.30469C69.6797 7.07031 69.75 6.8724 69.8906 6.71094C70.0365 6.54948 70.25 6.46875 70.5312 6.46875C70.8125 6.46875 71.026 6.54948 71.1719 6.71094C71.3177 6.8724 71.3906 7.07031 71.3906 7.30469C71.3906 7.53906 71.3177 7.73438 71.1719 7.89062C71.026 8.04688 70.8125 8.125 70.5312 8.125C70.25 8.125 70.0365 8.04688 69.8906 7.89062C69.75 7.73438 69.6797 7.53906 69.6797 7.30469ZM73.1797 13.6953C73.1797 12.8672 73.3411 12.1224 73.6641 11.4609C73.9922 10.7995 74.4453 10.2891 75.0234 9.92969C75.6068 9.57031 76.2708 9.39062 77.0156 9.39062C78.1667 9.39062 79.0964 9.78906 79.8047 10.5859C80.5182 11.3828 80.875 12.4427 80.875 13.7656V13.8672C80.875 14.6901 80.7161 15.4297 80.3984 16.0859C80.0859 16.737 79.6354 17.2448 79.0469 17.6094C78.4635 17.974 77.7917 18.1562 77.0312 18.1562C75.8854 18.1562 74.9557 17.7578 74.2422 16.9609C73.5339 16.1641 73.1797 15.1094 73.1797 13.7969V13.6953ZM74.6328 13.8672C74.6328 14.8047 74.849 15.5573 75.2812 16.125C75.7188 16.6927 76.3021 16.9766 77.0312 16.9766C77.7656 16.9766 78.349 16.6901 78.7812 16.1172C79.2135 15.5391 79.4297 14.7318 79.4297 13.6953C79.4297 12.7682 79.2083 12.0182 78.7656 11.4453C78.3281 10.8672 77.7448 10.5781 77.0156 10.5781C76.3021 10.5781 75.7266 10.862 75.2891 11.4297C74.8516 11.9974 74.6328 12.8099 74.6328 13.8672ZM84.1328 10.5703C84.7734 9.78385 85.6068 9.39062 86.6328 9.39062C88.4193 9.39062 89.3203 10.3984 89.3359 12.4141V18H87.8906V12.4062C87.8854 11.7969 87.7448 11.3464 87.4688 11.0547C87.1979 10.763 86.7734 10.6172 86.1953 10.6172C85.7266 10.6172 85.3151 10.7422 84.9609 10.9922C84.6068 11.2422 84.3307 11.5703 84.1328 11.9766V18H82.6875V6H84.1328V10.5703ZM96.7188 17.1641C96.1562 17.8255 95.3307 18.1562 94.2422 18.1562C93.3411 18.1562 92.6536 17.8958 92.1797 17.375C91.7109 16.849 91.474 16.0729 91.4688 15.0469V9.54688H92.9141V15.0078C92.9141 16.2891 93.4349 16.9297 94.4766 16.9297C95.5807 16.9297 96.3151 16.5182 96.6797 15.6953V9.54688H98.125V18H96.75L96.7188 17.1641ZM99.9844 13.7031C99.9844 12.3854 100.289 11.3385 100.898 10.5625C101.508 9.78125 102.315 9.39062 103.32 9.39062C104.352 9.39062 105.156 9.75521 105.734 10.4844L105.805 9.54688H107.125V17.7969C107.125 18.8906 106.799 19.7526 106.148 20.3828C105.503 21.013 104.633 21.3281 103.539 21.3281C102.93 21.3281 102.333 21.1979 101.75 20.9375C101.167 20.6771 100.721 20.3203 100.414 19.8672L101.164 19C101.784 19.7656 102.542 20.1484 103.438 20.1484C104.141 20.1484 104.688 19.9505 105.078 19.5547C105.474 19.1589 105.672 18.6016 105.672 17.8828V17.1562C105.094 17.8229 104.305 18.1562 103.305 18.1562C102.315 18.1562 101.513 17.7578 100.898 16.9609C100.289 16.1641 99.9844 15.0781 99.9844 13.7031ZM101.438 13.8672C101.438 14.8203 101.633 15.5703 102.023 16.1172C102.414 16.6589 102.961 16.9297 103.664 16.9297C104.576 16.9297 105.245 16.5156 105.672 15.6875V11.8281C105.229 11.0208 104.565 10.6172 103.68 10.6172C102.977 10.6172 102.427 10.8906 102.031 11.4375C101.635 11.9844 101.438 12.7943 101.438 13.8672ZM108.93 13.6953C108.93 12.8672 109.091 12.1224 109.414 11.4609C109.742 10.7995 110.195 10.2891 110.773 9.92969C111.357 9.57031 112.021 9.39062 112.766 9.39062C113.917 9.39062 114.846 9.78906 115.555 10.5859C116.268 11.3828 116.625 12.4427 116.625 13.7656V13.8672C116.625 14.6901 116.466 15.4297 116.148 16.0859C115.836 16.737 115.385 17.2448 114.797 17.6094C114.214 17.974 113.542 18.1562 112.781 18.1562C111.635 18.1562 110.706 17.7578 109.992 16.9609C109.284 16.1641 108.93 15.1094 108.93 13.7969V13.6953ZM110.383 13.8672C110.383 14.8047 110.599 15.5573 111.031 16.125C111.469 16.6927 112.052 16.9766 112.781 16.9766C113.516 16.9766 114.099 16.6901 114.531 16.1172C114.964 15.5391 115.18 14.7318 115.18 13.6953C115.18 12.7682 114.958 12.0182 114.516 11.4453C114.078 10.8672 113.495 10.5781 112.766 10.5781C112.052 10.5781 111.477 10.862 111.039 11.4297C110.602 11.9974 110.383 12.8099 110.383 13.8672Z" fill="#C4C4CC"/>
<path d="M7.999 5.16653C3.582 5.16653 0 8.76253 0 13.1985C0 16.7465 2.292 19.7565 5.472 20.8195C5.872 20.8935 6.018 20.6455 6.018 20.4325C6.018 20.2415 6.011 19.7365 6.007 19.0665C3.782 19.5515 3.312 17.9895 3.312 17.9895C2.949 17.0615 2.424 16.8145 2.424 16.8145C1.697 16.3165 2.478 16.3265 2.478 16.3265C3.281 16.3835 3.703 17.1545 3.703 17.1545C4.417 18.3815 5.576 18.0275 6.032 17.8215C6.104 17.3025 6.311 16.9485 6.54 16.7475C4.764 16.5445 2.896 15.8555 2.896 12.7785C2.896 11.9015 3.208 11.1845 3.72 10.6225C3.637 10.4195 3.363 9.60253 3.798 8.49753C3.798 8.49753 4.47 8.28153 5.998 9.32053C6.636 9.14253 7.32 9.05353 8.001 9.05053C8.68 9.05453 9.365 9.14253 10.004 9.32153C11.531 8.28253 12.202 8.49853 12.202 8.49853C12.638 9.60453 12.364 10.4205 12.282 10.6235C12.795 11.1855 13.104 11.9025 13.104 12.7795C13.104 15.8645 11.234 16.5435 9.452 16.7425C9.739 16.9905 9.995 17.4805 9.995 18.2295C9.995 19.3035 9.985 20.1695 9.985 20.4325C9.985 20.6475 10.129 20.8975 10.535 20.8185C13.71 19.7545 16 16.7455 16 13.1985C16 8.76253 12.418 5.16653 7.999 5.16653Z" fill="#C4C4CC"/>
</svg>
