<svg width="1440" height="820" viewBox="0 0 1440 820" fill="none" xmlns="http://www.w3.org/2000/svg">
<g clip-path="url(#clip0_61385:101)">
<circle cx="881" cy="-137" r="559" transform="rotate(-180 881 -137)" fill="url(#paint0_radial_61385:101)"/>
<circle cx="565" cy="-103" r="559" transform="rotate(-180 565 -103)" fill="url(#paint1_radial_61385:101)"/>
<rect x="541" y="140" width="358" height="540" fill="#202024"/>
<mask id="mask0_61385:101" style="mask-type:alpha" maskUnits="userSpaceOnUse" x="541" y="140" width="358" height="540">
<rect x="541" y="140" width="358" height="540" fill="#202024"/>
</mask>
<g mask="url(#mask0_61385:101)">
<path d="M899 345.111V56.8851L719.5 -8L540 56.8851V345.111L719.5 410L899 345.111Z" fill="url(#paint2_linear_61385:101)"/>
<g style="mix-blend-mode:luminosity" opacity="0.4">
<path d="M541 162.409V265.219L630.3 316.629L719.6 265.219V162.409L630.3 111L541 162.409Z" fill="url(#paint3_linear_61385:101)"/>
<path d="M541.801 60.7924V163.602L631.101 215.012L720.4 163.602V60.7924L631.101 9.38271L541.801 60.7924Z" fill="url(#paint4_linear_61385:101)"/>
<path d="M809.7 9.40883V112.218L720.4 163.628L631.101 112.218V9.40883L720.4 -42.0008L809.7 9.40883Z" fill="url(#paint5_linear_61385:101)"/>
<path d="M720.4 266.415V163.606L809.7 112.196L899 163.606V266.415L809.7 317.825L720.4 266.415Z" fill="url(#paint6_linear_61385:101)"/>
<path d="M899 60.7924V163.602L809.7 215.012L720.4 163.602V60.7924L809.7 9.38271L899 60.7924Z" fill="url(#paint7_linear_61385:101)"/>
<path d="M809.6 318.219V215.41L720.3 164L631 215.41V318.219L720.3 369.629L809.6 318.219Z" fill="url(#paint8_linear_61385:101)"/>
</g>
</g>
<rect x="680" y="156" width="80" height="8" fill="#121214"/>
<rect x="688" width="64" height="158" fill="url(#paint9_linear_61385:101)"/>
</g>
<defs>
<radialGradient id="paint0_radial_61385:101" cx="0" cy="0" r="1" gradientUnits="userSpaceOnUse" gradientTransform="translate(881 -137) rotate(90) scale(559)">
<stop stop-color="#4D6AD1"/>
<stop offset="1" stop-color="#121214" stop-opacity="0"/>
</radialGradient>
<radialGradient id="paint1_radial_61385:101" cx="0" cy="0" r="1" gradientUnits="userSpaceOnUse" gradientTransform="translate(565 -103) rotate(90) scale(559)">
<stop stop-color="#4A9A6A"/>
<stop offset="1" stop-color="#121214" stop-opacity="0"/>
</radialGradient>
<linearGradient id="paint2_linear_61385:101" x1="719.5" y1="-7.99999" x2="719.5" y2="410" gradientUnits="userSpaceOnUse">
<stop stop-color="#00FF66"/>
<stop offset="0.864583" stop-color="#1E50FF" stop-opacity="0"/>
</linearGradient>
<linearGradient id="paint3_linear_61385:101" x1="803.699" y1="200.97" x2="749.745" y2="104.162" gradientUnits="userSpaceOnUse">
<stop stop-color="#383356"/>
<stop offset="1" stop-color="#70C149" stop-opacity="0"/>
</linearGradient>
<linearGradient id="paint4_linear_61385:101" x1="631.101" y1="210.283" x2="542.185" y2="58.5467" gradientUnits="userSpaceOnUse">
<stop stop-color="#3243DF"/>
<stop offset="1" stop-color="#FF008E" stop-opacity="0"/>
</linearGradient>
<linearGradient id="paint5_linear_61385:101" x1="631.101" y1="3.63086" x2="809.424" y2="111.24" gradientUnits="userSpaceOnUse">
<stop stop-color="#0038FF" stop-opacity="0"/>
<stop offset="1" stop-color="#1E78FF"/>
</linearGradient>
<linearGradient id="paint6_linear_61385:101" x1="899" y1="272.193" x2="720.676" y2="164.584" gradientUnits="userSpaceOnUse">
<stop stop-color="#3C4667" stop-opacity="0"/>
<stop offset="1" stop-color="#1E78FF"/>
</linearGradient>
<linearGradient id="paint7_linear_61385:101" x1="809.7" y1="210.283" x2="898.615" y2="58.5467" gradientUnits="userSpaceOnUse">
<stop stop-color="#3243DF"/>
<stop offset="1" stop-color="#FF008E" stop-opacity="0"/>
</linearGradient>
<linearGradient id="paint8_linear_61385:101" x1="720.3" y1="168.728" x2="809.215" y2="320.465" gradientUnits="userSpaceOnUse">
<stop stop-color="#3243DF"/>
<stop offset="1" stop-color="#1A0611" stop-opacity="0"/>
</linearGradient>
<linearGradient id="paint9_linear_61385:101" x1="649.5" y1="4.93019e-08" x2="782" y2="158" gradientUnits="userSpaceOnUse">
<stop stop-color="#00FF66"/>
<stop offset="1" stop-color="#1E50FF" stop-opacity="0.99"/>
</linearGradient>
<clipPath id="clip0_61385:101">
<rect width="1440" height="820" fill="white"/>
</clipPath>
</defs>
</svg>
